Coordinates
version=1
nRows=15
nColumns=26
inDegrees=yes

Units are S.I. units (second, meters, Newtons, ...)
Angles are in degrees.

endheader
time	pelvis_tilt	pelvis_list	pelvis_rotation	pelvis_tx	pelvis_ty	pelvis_tz	hip_flexion_r	hip_adduction_r	hip_rotation_r	knee_angle_r	knee_angle_r_beta	ankle_angle_r	subtalar_angle_r	mtp_angle_r	hip_flexion_l	hip_adduction_l	hip_rotation_l	knee_angle_l	knee_angle_l_beta	ankle_angle_l	subtalar_angle_l	mtp_angle_l	lumbar_extension	lumbar_bending	lumbar_rotation
     77.68108844	    -12.47869937	     -1.05074619	    -10.88058761	      0.18291505	      1.00655717	      0.18825674	      3.75361358	      3.24264179	      8.82709145	     24.75747811	     24.75747811	      3.16935776	    -14.80078151	      0.00000000	     48.69477004	     -5.49187026	      0.60988244	     73.96094254	     73.96094254	    -11.66845736	    -29.07508270	      0.00000000	     -4.81605790	      1.10579732	     14.15634426
     77.69108844	    -12.76499032	      0.48987373	    -10.63779909	      0.18579844	      1.01357971	      0.18703625	      1.61886852	      0.91089384	      8.05594246	     21.80054658	     21.80054658	     -0.68357897	    -13.33534457	      0.00000000	     48.53100590	     -4.09122792	     -0.52613190	     68.35807455	     68.35807455	    -11.66478122	    -28.90109083	      0.00000000	     -3.86858526	     -0.76788628	     15.00353074
     77.70108844	    -13.00726906	      1.93694729	    -10.32010305	      0.18885688	      1.02020538	      0.18586195	     -0.39650730	     -1.28317042	      6.83160637	     19.12282175	     19.12282175	     -4.67063762	    -11.76206452	      0.00000000	     48.04581837	     -2.67478488	     -1.40167618	     62.35546363	     62.35546363	    -11.56775090	    -28.42773526	      0.00000000	     -2.98808685	     -2.57778311	     15.72973761
     77.71108844	    -14.05732050	      2.40319038	    -10.20767073	      0.19103050	      1.02508089	      0.18530651	     -1.37804949	     -2.19311784	      5.61137462	     16.96709602	     16.96709602	     -8.65300609	     -9.86523529	      0.00000000	     48.28270637	     -2.34980259	     -1.48480130	     56.41623038	     56.41623038	    -11.29743068	    -27.43842523	      0.00000000	     -1.44138326	     -3.10231961	     16.87856808
     77.72108844	    -13.17319987	      3.73697633	     -9.54831836	      0.19552764	      1.03216932	      0.18394608	     -4.66964190	     -4.31207618	      3.57799658	     14.20172735	     14.20172735	    -13.04304470	     -8.81108617	      0.00000000	     45.89081478	     -0.48194568	     -1.81826010	     49.46365453	     49.46365453	    -11.14287799	    -26.63998870	      0.00000000	     -1.82523006	     -5.05697935	     16.87125041
     77.73108844	    -13.21503792	      4.04045514	     -9.15535550	      0.19919356	      1.03706167	      0.18293920	     -6.63513097	     -5.04379109	      1.95655612	     12.33895306	     12.33895306	    -16.89569499	     -7.72270226	      0.00000000	     44.41451977	      0.15466159	     -1.36193283	     42.83804967	     42.83804967	    -10.62135109	    -24.96339724	      0.00000000	     -1.38453447	     -5.60428063	     17.11381984
     77.74108844	    -12.98473337	      3.75434302	     -8.81659722	      0.20301812	      1.04146579	      0.18212280	     -8.69230959	     -5.08553572	      0.63344516	     11.06368251	     11.06368251	    -20.41594666	     -7.05874412	      0.00000000	     42.48946828	      0.27879224	     -0.42200097	     36.38300295	     36.38300295	    -10.05839061	    -22.81052395	      0.00000000	     -1.34766193	     -5.52554492	     17.36359670
     77.75108844	    -12.75549988	      3.05747509	     -8.48751567	      0.20652327	      1.04476419	      0.18139223	    -10.37143405	     -4.56585984	     -0.04643136	     10.77659278	     10.77659278	    -23.54753630	     -7.43335141	      0.00000000	     40.57070295	     -0.03092615	      0.79737254	     30.33590400	     30.33590400	     -9.78688541	    -20.75567249	      0.00000000	     -1.40019495	     -4.97654933	     17.48691556
     77.76108844	    -12.42815191	      2.00666713	     -8.27413716	      0.20956340	      1.04695967	      0.18094799	    -11.83060670	     -3.60569600	      0.11690429	     11.50449004	     11.50449004	    -25.41890534	     -8.73516679	      0.00000000	     38.71307522	     -0.85457373	      1.77190151	     25.06224097	     25.06224097	     -9.87333607	    -18.98567340	      0.00000000	     -1.65648625	     -4.05380222	     17.64435756
     77.77108844	    -12.06522000	      0.80030274	     -8.14706006	      0.21217104	      1.04802458	      0.18062453	    -12.99888329	     -2.41982635	      1.00543359	     13.21321275	     13.21321275	    -25.81920152	    -10.94609643	      0.00000000	     37.18968003	     -2.04304287	      1.93838285	     21.00818494	     21.00818494	    -10.13994834	    -17.33333354	      0.00000000	     -1.98858191	     -2.94283735	     17.66118767
     77.78108844	    -11.79028621	     -0.31767874	     -7.93988016	      0.21399832	      1.04797850	      0.17998391	    -13.47335885	     -1.30505403	      1.56009571	     16.14317117	     16.14317117	    -25.32655481	    -13.21224484	      0.00000000	     36.09406231	     -3.16846121	      1.55674703	     18.11413221	     18.11413221	     -9.95153954	    -15.90899396	      0.00000000	     -2.27712319	     -1.89345853	     17.49126792
     77.79108844	    -11.51896829	     -1.33382116	     -7.60549858	      0.21531331	      1.04717166	      0.17892553	    -13.49207478	     -0.27050655	      1.80436505	     19.83694432	     19.83694432	    -25.30076714	    -15.82639482	      0.00000000	     35.24360192	     -4.10419264	      1.03880384	     16.24793400	     16.24793400	     -9.37592455	    -14.78160793	      0.00000000	     -2.60020749	     -0.94605833	     17.12973187
     77.80108844	    -11.19497286	     -2.05212323	     -7.21131303	      0.21635175	      1.04560887	      0.17738512	    -13.17297903	      0.39242010	      1.61422374	     24.09850208	     24.09850208	    -25.81856612	    -18.49364767	      0.00000000	     34.44278224	     -4.64505141	      0.56811460	     15.11878351	     15.11878351	     -8.88162714	    -14.29191580	      0.00000000	     -2.96723665	     -0.32641827	     16.62541454
     77.81108844	    -10.98543000	     -2.76487231	     -6.90631064	      0.21685516	      1.04309238	      0.17579104	    -12.43316269	      1.08893854	      1.67004460	     28.77809916	     28.77809916	    -26.95296816	    -21.90122538	      0.00000000	     33.91433307	     -5.20969678	     -0.03450396	     14.86286125	     14.86286125	     -8.50240816	    -14.14919551	      0.00000000	     -3.26605341	      0.34010780	     16.10125099
     77.82108844	    -10.64169937	     -3.09195782	     -6.47921564	      0.21726379	      1.03975221	      0.17393389	    -11.50340601	      1.31761157	      1.38540411	     33.93770755	     33.93770755	    -27.57449034	    -24.74385023	      0.00000000	     33.30303652	     -5.26804844	     -0.38548270	     15.23095763	     15.23095763	     -8.47508993	    -14.42729453	      0.00000000	     -3.66931077	      0.55387978	     15.41241464
